# xmcd CD database file
# Copyright (C) 1993-1998 Ti Kan
# 
# Track frame offsets:
#     150
#     11662
#     27710
#     45915
#     67365
#     84185
#     100195
#     121905
#     139232
#     158915
#     172735
#     189017
# 
# Disc length: 2729 seconds
# 
# Revision: 1
# Processed by: cddbd v1.4b41PL1 Copyright (c) Steve Scherf et al.
# Submitted via: DiscPlay 4.0.4
# 
DISCID=920aa70c
DTITLE=Willie Nelson - Willie Nelson Collection
DYEAR=1900
DGENRE=
TTITLE0=On The Road Again
TTITLE1=To all the Girls I've Loved Before
TTITLE2=A Whiter Shade of Pale
TTITLE3=They All Went To Mexico
TTITLE4=Golden Earrings
TTITLE5=Always On My Mind
TTITLE6=City Of New-Orleans
TTITLE7=Seven Spanish Angels
TTITLE8=Georgia On My Mind
TTITLE9=Highway Man
TTITLE10=Over the Rainbow
TTITLE11=Let It Be Me
EXTD=
EXTT0=
EXTT1=With Julio Iglesias\n
EXTT2=
EXTT3=With Carlos Santana\n
EXTT4=
EXTT5=
EXTT6=
EXTT7=With Ray Charles\n
EXTT8=
EXTT9=
EXTT10=
EXTT11=
PLAYORDER=
